<?xml version="1.0" encoding="utf-8"?>
<!-- Generator: Adobe Illustrator 19.0.0, SVG Export Plug-In . SVG Version: 6.00 Build 0)  -->
<svg version="1.1" id="Layer_1" xmlns="http://www.w3.org/2000/svg" xmlns:xlink="http://www.w3.org/1999/xlink" x="0px" y="0px"
	 width="241.6px" height="90.2px" viewBox="0 0 241.6 90.2" style="enable-background:new 0 0 241.6 90.2;" xml:space="preserve">
<style type="text/css">
	.st0{fill:url(#XMLID_84_);}
	.st1{fill:url(#XMLID_85_);}
	.st2{fill:#72B82E;}
	.st3{fill:#FFFFFF;}
</style>
<g id="XMLID_249_">
	<linearGradient id="XMLID_84_" gradientUnits="userSpaceOnUse" x1="0" y1="48.9724" x2="73.9755" y2="48.9724">
		<stop  offset="0" style="stop-color:#8ADB35"/>
		<stop  offset="1" style="stop-color:#72B82E"/>
	</linearGradient>
	<path id="XMLID_260_" class="st0" d="M0.2,50.7c-1.8-3.2,13-18.1,37.6-21.3C65.9,25.5,71.7,0,73.9,10.1c1.7,7.9-15,26.1-16.2,36.3
		C56.6,56.1,76.6,84.8,68.4,90c-5,3.1-17.3-23.7-27.5-20.1C31.2,74,28.2,90.5,21.1,88.2c-7.2-2.3,8.8-29.1,4.4-38.4
		C21.9,42.5,2.6,54.9,0.2,50.7z"/>
	<linearGradient id="XMLID_85_" gradientUnits="userSpaceOnUse" x1="23.9003" y1="12.7722" x2="49.4446" y2="12.7722">
		<stop  offset="0" style="stop-color:#8ADB35"/>
		<stop  offset="1" style="stop-color:#72B82E"/>
	</linearGradient>
	<circle id="XMLID_257_" class="st1" cx="36.7" cy="12.8" r="12.8"/>
	<g id="XMLID_256_">
		<path id="XMLID_29_" class="st2" d="M104.9,61.8c-0.4,0-0.7-0.1-1-0.3s-0.4-0.4-0.5-0.5L93.1,45.4v15.3c0,0.3-0.1,0.5-0.3,0.7
			c-0.2,0.2-0.4,0.3-0.7,0.3h-3c-0.3,0-0.5-0.1-0.7-0.3C88.1,61.3,88,61,88,60.8v-24c0-0.3,0.1-0.5,0.3-0.7c0.2-0.2,0.4-0.3,0.7-0.3
			h2.6c0.4,0,0.7,0.1,1,0.3c0.2,0.2,0.4,0.4,0.5,0.5l10.4,15.5V36.7c0-0.3,0.1-0.5,0.3-0.7c0.2-0.2,0.4-0.3,0.7-0.3h3
			c0.3,0,0.5,0.1,0.7,0.3c0.2,0.2,0.3,0.4,0.3,0.7v24c0,0.3-0.1,0.5-0.3,0.7c-0.2,0.2-0.4,0.3-0.7,0.3H104.9z"/>
		<path id="XMLID_57_" class="st2" d="M126.6,35.7c0.4,0,0.7,0.1,0.9,0.3c0.2,0.2,0.4,0.5,0.5,0.9l9.1,23.5c0,0.1,0,0.2,0,0.3
			c0,0.3-0.1,0.5-0.3,0.7c-0.2,0.2-0.4,0.3-0.7,0.3h-2.7c-0.5,0-0.8-0.1-1-0.3c-0.2-0.2-0.3-0.4-0.4-0.6l-1.6-4.1h-11.8l-1.6,4.1
			c-0.1,0.2-0.2,0.4-0.4,0.6c-0.2,0.2-0.5,0.3-1,0.3h-2.7c-0.3,0-0.5-0.1-0.7-0.3c-0.2-0.2-0.3-0.4-0.3-0.7c0-0.1,0-0.2,0-0.3
			l9.1-23.5c0.1-0.4,0.3-0.7,0.5-0.9c0.2-0.2,0.5-0.3,0.9-0.3H126.6z M128.6,52.1l-4.1-10.6l-4.1,10.6H128.6z"/>
		<path id="XMLID_60_" class="st2" d="M160.8,35.7c0.3,0,0.5,0.1,0.7,0.3c0.2,0.2,0.3,0.4,0.3,0.7v24c0,0.3-0.1,0.5-0.3,0.7
			c-0.2,0.2-0.4,0.3-0.7,0.3h-3c-0.3,0-0.5-0.1-0.7-0.3c-0.2-0.2-0.3-0.4-0.3-0.7v-9.8h-11.2v9.8c0,0.3-0.1,0.5-0.3,0.7
			c-0.2,0.2-0.4,0.3-0.7,0.3h-3c-0.3,0-0.5-0.1-0.7-0.3c-0.2-0.2-0.3-0.4-0.3-0.7v-24c0-0.3,0.1-0.5,0.3-0.7
			c0.2-0.2,0.4-0.3,0.7-0.3h3c0.3,0,0.5,0.1,0.7,0.3c0.2,0.2,0.3,0.4,0.3,0.7v9.6h11.2v-9.6c0-0.3,0.1-0.5,0.3-0.7
			c0.2-0.2,0.4-0.3,0.7-0.3H160.8z"/>
		<path id="XMLID_62_" class="st2" d="M187.8,35.7c0.3,0,0.5,0.1,0.7,0.3c0.2,0.2,0.3,0.4,0.3,0.7V52c0,1.5-0.2,2.9-0.7,4.2
			c-0.4,1.2-1.1,2.3-2,3.2c-0.9,0.9-2,1.6-3.3,2.1c-1.3,0.5-2.9,0.7-4.7,0.7c-1.8,0-3.3-0.2-4.7-0.7c-1.3-0.5-2.4-1.2-3.3-2.1
			c-0.9-0.9-1.6-2-2-3.2c-0.4-1.2-0.7-2.6-0.7-4.2V36.7c0-0.3,0.1-0.5,0.3-0.7c0.2-0.2,0.4-0.3,0.7-0.3h3c0.3,0,0.5,0.1,0.7,0.3
			c0.2,0.2,0.3,0.4,0.3,0.7v15.1c0,1,0.1,1.9,0.4,2.6c0.3,0.7,0.7,1.3,1.2,1.8s1.1,0.8,1.8,1c0.7,0.2,1.5,0.3,2.3,0.3
			c0.8,0,1.6-0.1,2.3-0.3s1.3-0.5,1.8-1c0.5-0.5,0.9-1,1.2-1.8c0.3-0.7,0.4-1.6,0.4-2.6V36.7c0-0.3,0.1-0.5,0.3-0.7
			c0.2-0.2,0.4-0.3,0.7-0.3H187.8z"/>
		<path id="XMLID_64_" class="st2" d="M206,35.7c0.4,0,0.7,0.1,0.9,0.3c0.2,0.2,0.4,0.5,0.5,0.9l9.1,23.5c0,0.1,0,0.2,0,0.3
			c0,0.3-0.1,0.5-0.3,0.7c-0.2,0.2-0.4,0.3-0.7,0.3h-2.7c-0.5,0-0.8-0.1-1-0.3c-0.2-0.2-0.3-0.4-0.4-0.6l-1.6-4.1h-11.8l-1.6,4.1
			c-0.1,0.2-0.2,0.4-0.4,0.6c-0.2,0.2-0.5,0.3-1,0.3h-2.7c-0.3,0-0.5-0.1-0.7-0.3c-0.2-0.2-0.3-0.4-0.3-0.7c0-0.1,0-0.2,0-0.3
			l9.1-23.5c0.1-0.4,0.3-0.7,0.5-0.9c0.2-0.2,0.5-0.3,0.9-0.3H206z M208.1,52.1L204,41.5l-4.1,10.6H208.1z"/>
		<path id="XMLID_67_" class="st2" d="M237.3,57.1c0.3,0,0.5,0.1,0.7,0.3c0.2,0.2,0.3,0.4,0.3,0.7v2.6c0,0.3-0.1,0.5-0.3,0.7
			c-0.2,0.2-0.4,0.3-0.7,0.3H221c-0.3,0-0.5-0.1-0.7-0.3c-0.2-0.2-0.3-0.4-0.3-0.7v-24c0-0.3,0.1-0.5,0.3-0.7
			c0.2-0.2,0.4-0.3,0.7-0.3h3c0.3,0,0.5,0.1,0.7,0.3c0.2,0.2,0.3,0.4,0.3,0.7v20.4H237.3z"/>
	</g>
	<g id="XMLID_253_">
		<g id="XMLID_233_">
			<path id="XMLID_254_" class="st3" d="M94.5,12.8c4.2,0,6.5,2,6.5,5.6c0,3.6-2.4,5.7-6.5,5.7h-5v5.7h-1v-17H94.5z M89.5,23.1h4.9
				c3.5,0,5.6-1.7,5.6-4.7c0-3-2-4.6-5.6-4.6h-4.9V23.1z"/>
			<path id="XMLID_248_" class="st3" d="M115,24c-0.5,0.1-0.9,0.1-1.4,0.1h-5v5.7h-1v-17h6c4.2,0,6.6,2,6.6,5.6
				c0,2.9-1.5,4.8-4.2,5.5l4.3,5.9H119L115,24z M113.6,23.1c3.5,0,5.6-1.7,5.6-4.7c0-3-2-4.6-5.6-4.6h-5v9.3H113.6z"/>
			<path id="XMLID_245_" class="st3" d="M143.8,21.3c0,4.7-3.9,8.5-8.8,8.5s-8.8-3.8-8.8-8.5s3.9-8.5,8.8-8.5S143.8,16.6,143.8,21.3
				z M127.2,21.3c0,4.2,3.5,7.5,7.7,7.5s7.7-3.4,7.7-7.5c0-4.2-3.5-7.5-7.7-7.5S127.2,17.1,127.2,21.3z"/>
			<path id="XMLID_243_" class="st3" d="M155.7,29.8h-1v-6.2l-6.8-10.8h1.1l6.2,9.5l6.1-9.5h1.1l-6.7,10.8V29.8z"/>
			<path id="XMLID_241_" class="st3" d="M169.4,13.8v6.8h8.8v1h-8.8v7.2h10.3v1h-11.3v-17h11v1H169.4z"/>
			<path id="XMLID_239_" class="st3" d="M200,15.1l-0.6,0.8c-1.4-1.3-3.3-2.1-5.3-2.1c-4.3,0-7.8,3.4-7.8,7.5c0,4.2,3.5,7.6,7.8,7.6
				c2,0,3.9-0.8,5.3-2.1l0.6,0.7c-1.6,1.5-3.7,2.4-6,2.4c-4.8,0-8.8-3.8-8.8-8.5s3.9-8.5,8.8-8.5C196.3,12.8,198.4,13.7,200,15.1z"
				/>
			<path id="XMLID_237_" class="st3" d="M211.1,13.8v16h-1v-16h-5.7v-1h12.5v1H211.1z"/>
			<path id="XMLID_234_" class="st3" d="M237.6,21.3c0,4.7-3.9,8.5-8.8,8.5S220,26,220,21.3s3.9-8.5,8.8-8.5S237.6,16.6,237.6,21.3z
				 M221,21.3c0,4.2,3.5,7.5,7.7,7.5s7.7-3.4,7.7-7.5c0-4.2-3.5-7.5-7.7-7.5S221,17.1,221,21.3z"/>
		</g>
	</g>
	<g id="XMLID_250_">
		<g id="XMLID_205_">
			<path id="XMLID_221_" class="st3" d="M97.2,75.8c0,2.9-1.7,4.6-4.6,4.6c-2.9,0-4.6-1.7-4.6-4.6v-6.5h1.3v6.5
				c0,2.1,1.3,3.4,3.4,3.4c2.1,0,3.3-1.2,3.3-3.4v-6.5h1.3V75.8z"/>
			<path id="XMLID_218_" class="st3" d="M107,76.8c-0.2,0-0.5,0-0.7,0h-2.9v3.5h-1.3v-11h4.2c2.7,0,4.3,1.3,4.3,3.7
				c0,1.8-0.9,3-2.5,3.6l2.6,3.7h-1.4L107,76.8z M106.3,75.6c2,0,3.1-0.9,3.1-2.6c0-1.7-1.1-2.5-3.1-2.5h-2.9v5.1H106.3z"/>
			<path id="XMLID_216_" class="st3" d="M124.3,75.8c0,2.9-1.7,4.6-4.6,4.6c-2.9,0-4.6-1.7-4.6-4.6v-6.5h1.3v6.5
				c0,2.1,1.3,3.4,3.4,3.4c2.1,0,3.3-1.2,3.3-3.4v-6.5h1.3V75.8z"/>
			<path id="XMLID_214_" class="st3" d="M138,74.9v4c-1.1,0.9-2.6,1.4-4.1,1.4c-3.2,0-5.7-2.5-5.7-5.5c0-3.1,2.6-5.5,5.8-5.5
				c1.5,0,3,0.6,4,1.5l-0.7,0.9c-0.9-0.8-2.1-1.3-3.3-1.3c-2.5,0-4.5,1.9-4.5,4.3c0,2.4,2,4.4,4.5,4.4c1,0,2-0.3,2.9-0.9v-3.3H138z"
				/>
			<path id="XMLID_212_" class="st3" d="M151.9,75.8c0,2.9-1.7,4.6-4.6,4.6c-2.9,0-4.6-1.7-4.6-4.6v-6.5h1.3v6.5
				c0,2.1,1.3,3.4,3.4,3.4c2.1,0,3.3-1.2,3.3-3.4v-6.5h1.3V75.8z"/>
			<path id="XMLID_208_" class="st3" d="M157.4,77.5l-1.2,2.8h-1.3l4.9-11h1.3l4.9,11h-1.4l-1.2-2.8H157.4z M160.4,70.7l-2.4,5.6
				h4.9L160.4,70.7z"/>
			<path id="XMLID_206_" class="st3" d="M172.8,80.3h-1.2v-3.7l-4.2-7.3h1.3l3.6,5.7l3.5-5.7h1.3l-4.2,7.2V80.3z"/>
		</g>
	</g>
</g>
<g id="XMLID_16_">
</g>
<g id="XMLID_69_">
</g>
<g id="XMLID_70_">
</g>
<g id="XMLID_71_">
</g>
<g id="XMLID_72_">
</g>
<g id="XMLID_73_">
</g>
<g id="XMLID_74_">
</g>
<g id="XMLID_75_">
</g>
<g id="XMLID_76_">
</g>
<g id="XMLID_77_">
</g>
<g id="XMLID_78_">
</g>
<g id="XMLID_79_">
</g>
<g id="XMLID_80_">
</g>
<g id="XMLID_81_">
</g>
<g id="XMLID_82_">
</g>
</svg>
